<?xml version="1.0" encoding="utf-8"?>
<svg xmlns="http://www.w3.org/2000/svg" viewBox="0 105.705 500 394.295" width="777.69685px" height="613.2839589415px"><path d="M 91.162 152.21 C 87.161 152.652 84.533 156.602 85.671 160.463 L 66.977 173.82 L 78.119 178.108 L 94.163 164.767 C 98.859 163.038 99.922 156.875 96.078 153.673 C 94.709 152.531 92.931 152.003 91.162 152.21 Z" fill="#ffb8b8" style=""/><path d="M 89.425 172.331 L 66.238 195.66 C 63.06 198.837 58.87 200.8 54.395 201.208 L 25.745 203.822 C 23.623 204.025 21.508 203.36 19.884 201.981 C 15.331 198.17 16.612 190.86 22.188 188.823 C 22.545 188.692 22.913 188.587 23.288 188.51 L 52.557 182.278 L 79.205 162.636 C 79.959 162.211 80.881 162.217 81.628 162.653 L 88.875 168.59 C 89.77 169.08 90.252 170.085 90.077 171.088 C 89.992 171.56 89.765 171.993 89.425 172.331 Z" fill="#2f2e41" style=""/><path d="M 367.415 184.869 C 367.769 181.605 366.043 178.47 363.097 177.025 L 218.798 106.499 C 214.938 104.61 210.28 106.208 208.392 110.067 L 208.389 110.072 L 154.267 220.805 C 152.386 224.667 153.985 229.323 157.841 231.215 L 302.14 301.742 C 306.002 303.622 310.658 302.024 312.549 298.167 L 366.67 187.434 C 367.066 186.629 367.318 185.76 367.415 184.869 Z" fill="#f2f2f2" style=""/><path d="M 282.879 430.64 L 95.644 430.64 C 90.736 430.635 86.76 426.658 86.753 421.75 L 86.753 167.57 C 86.76 162.662 90.736 158.684 95.644 158.679 L 282.879 158.679 C 287.788 158.684 291.766 162.662 291.771 167.57 L 291.771 421.75 C 291.766 426.658 287.788 430.635 282.879 430.64 Z" fill="#fff" style=""/><circle cx="145.306" cy="222.257" r="12.215" fill="#e6e6e6" style=""/><path d="M 126.688 255.644 C 128.414 256.626 130.22 257.457 132.087 258.133 L 132.418 258.247 C 136.179 259.568 140.137 260.24 144.122 260.234 C 144.925 260.234 145.698 260.207 146.42 260.153 C 148.176 260.044 149.921 259.804 151.641 259.432 C 152.585 259.226 153.526 258.979 154.438 258.7 C 154.658 258.634 154.862 258.571 155.085 258.501 C 158.796 257.298 162.282 255.492 165.405 253.153 C 165.155 252.679 164.88 252.218 164.583 251.772 C 161.32 246.787 155.763 243.788 149.807 243.795 L 143.376 243.795 C 136.451 243.797 130.163 247.839 127.288 254.138 C 127.062 254.63 126.862 255.132 126.688 255.644 Z" fill="#e6e6e6" style=""/><path d="M 149.451 259.128 C 149.041 259.158 148.646 259.297 148.306 259.53 C 150.03 259.422 151.743 259.185 153.431 258.818 L 149.451 259.128 Z" fill="#2f2e41" style=""/><path d="M 146.047 189.108 C 118.545 189.11 101.36 218.883 115.114 242.698 C 118.257 248.14 122.778 252.656 128.225 255.793 C 130.035 256.84 131.935 257.724 133.902 258.435 L 134.236 258.55 C 138.03 259.883 142.024 260.561 146.047 260.556 C 146.824 260.556 147.603 260.531 148.368 260.473 C 150.138 260.364 151.898 260.121 153.632 259.746 C 154.604 259.534 155.555 259.283 156.455 259.007 C 156.674 258.943 156.88 258.879 157.105 258.808 C 183.256 250.29 190.379 216.657 169.927 198.268 C 163.369 192.373 154.865 189.11 146.047 189.108 Z M 166.774 251.594 C 163.692 253.972 160.223 255.802 156.519 257.001 C 156.32 257.065 156.113 257.13 155.909 257.194 C 155.054 257.457 154.154 257.689 153.228 257.888 C 151.587 258.246 149.921 258.478 148.245 258.583 C 147.518 258.634 146.779 258.659 146.047 258.659 C 142.239 258.662 138.46 258.021 134.866 256.763 L 134.551 256.653 C 132.594 255.95 130.709 255.064 128.92 254.005 C 106.495 240.804 106.771 208.279 129.416 195.46 C 152.06 182.641 180.09 199.142 179.87 225.162 C 179.782 235.513 174.956 245.253 166.774 251.594 Z" fill="#ccc" style=""/><path fill="#f2f2f2"/><path d="M 282.879 430.64 L 95.644 430.64 C 90.736 430.635 86.76 426.658 86.753 421.75 L 86.753 167.57 C 86.76 162.662 90.736 158.684 95.644 158.679 L 282.879 158.679 C 287.788 158.684 291.766 162.662 291.771 167.57 L 291.771 421.75 C 291.766 426.658 287.788 430.635 282.879 430.64 Z M 95.644 159.725 C 91.313 159.73 87.804 163.239 87.799 167.57 L 87.799 421.75 C 87.804 426.08 91.313 429.59 95.644 429.594 L 282.879 429.594 C 287.21 429.59 290.72 426.08 290.725 421.75 L 290.725 167.57 C 290.72 163.239 287.21 159.73 282.879 159.725 L 95.644 159.725 Z" fill="#ccc" style=""/><path d="M 246.633 224.695 L 193.653 224.695 C 190.426 224.695 188.409 221.202 190.022 218.407 C 190.771 217.111 192.154 216.312 193.653 216.312 L 246.633 216.312 C 249.86 216.312 251.876 219.805 250.263 222.598 C 249.515 223.896 248.13 224.695 246.633 224.695 Z" fill="#e6e6e6" style=""/><path d="M 263.923 238.841 L 193.653 238.841 C 190.426 238.841 188.409 235.348 190.022 232.553 C 190.771 231.256 192.154 230.457 193.653 230.457 L 263.923 230.457 C 267.15 230.457 269.166 233.95 267.553 236.745 C 266.805 238.042 265.42 238.841 263.923 238.841 Z" fill="#e6e6e6" style=""/><path d="M 246.556 293.096 L 114.601 293.096 C 111.375 293.096 109.359 289.603 110.972 286.81 C 111.721 285.512 113.104 284.713 114.601 284.713 L 246.556 284.713 C 249.783 284.713 251.799 288.206 250.187 291.001 C 249.438 292.297 248.053 293.096 246.556 293.096 Z" fill="#e6e6e6" style=""/><path d="M 263.846 307.242 L 114.601 307.242 C 111.375 307.242 109.359 303.749 110.972 300.955 C 111.721 299.658 113.104 298.86 114.601 298.86 L 263.846 298.86 C 267.072 298.86 269.089 302.352 267.475 305.147 C 266.726 306.443 265.343 307.242 263.846 307.242 Z" fill="#e6e6e6" style=""/><path d="M 246.556 339.755 L 114.601 339.755 C 111.375 339.755 109.359 336.262 110.972 333.468 C 111.721 332.172 113.104 331.373 114.601 331.373 L 246.556 331.373 C 249.783 331.373 251.799 334.866 250.187 337.659 C 249.438 338.956 248.053 339.755 246.556 339.755 Z" fill="#e6e6e6" style=""/><path d="M 263.846 353.901 L 114.601 353.901 C 111.375 353.901 109.359 350.408 110.972 347.614 C 111.721 346.317 113.104 345.518 114.601 345.518 L 263.846 345.518 C 267.072 345.518 269.089 349.011 267.475 351.805 C 266.726 353.103 265.343 353.901 263.846 353.901 Z" fill="#e6e6e6" style=""/><path d="M 246.556 386.415 L 114.601 386.415 C 111.375 386.415 109.359 382.922 110.972 380.127 C 111.721 378.83 113.104 378.031 114.601 378.031 L 246.556 378.031 C 249.783 378.031 251.799 381.524 250.187 384.318 C 249.438 385.616 248.053 386.415 246.556 386.415 Z" fill="#e6e6e6" style=""/><path d="M 263.846 400.56 L 114.601 400.56 C 111.375 400.56 109.359 397.067 110.972 394.272 C 111.721 392.976 113.104 392.177 114.601 392.177 L 263.846 392.177 C 267.072 392.181 269.084 395.676 267.467 398.469 C 266.719 399.761 265.339 400.558 263.846 400.56 Z" fill="#e6e6e6" style=""/><path d="M 360.986 257.519 C 361.34 254.255 359.614 251.12 356.666 249.675 L 212.369 179.149 C 208.509 177.26 203.851 178.858 201.962 182.718 L 201.959 182.723 L 147.838 293.455 C 145.957 297.318 147.556 301.974 151.412 303.865 L 295.711 374.392 C 299.573 376.272 304.229 374.674 306.121 370.817 L 360.241 260.085 C 360.637 259.279 360.889 258.41 360.986 257.519 Z" fill="#fff" style=""/><path d="M 360.986 257.519 C 361.34 254.255 359.614 251.12 356.666 249.675 L 212.369 179.149 C 208.509 177.26 203.851 178.858 201.962 182.718 L 201.959 182.723 L 147.838 293.455 C 145.957 297.318 147.556 301.974 151.412 303.865 L 295.711 374.392 C 299.573 376.272 304.229 374.674 306.121 370.817 L 360.241 260.085 C 360.637 259.279 360.889 258.41 360.986 257.519 Z M 305.298 370.415 C 303.629 373.819 299.52 375.229 296.113 373.569 L 151.815 303.042 C 148.411 301.374 147.001 297.265 148.66 293.857 L 202.782 183.125 C 204.45 179.721 208.558 178.311 211.966 179.971 L 356.264 250.498 C 359.669 252.166 361.079 256.275 359.42 259.681 L 305.298 370.415 Z" fill="#3f3d56" style=""/><path d="M 345.247 262.553 L 307.456 339.875 C 306.931 340.949 305.634 341.395 304.559 340.871 L 173.3 276.716 C 173.207 276.672 173.116 276.619 173.031 276.559 C 172.142 275.954 171.832 274.786 172.304 273.819 L 210.096 196.497 C 210.621 195.422 211.918 194.977 212.993 195.501 L 344.252 259.656 C 345.327 260.18 345.773 261.477 345.247 262.552 L 345.247 262.553 Z" fill="#e6e6e6" style=""/><circle cx="230.011" cy="239.617" r="19.01" fill="#6c63ff" style=""/><path d="M 257.844 318.423 L 174.062 277.474 C 173.958 277.425 173.855 277.364 173.761 277.296 L 246.933 228.027 C 248.892 226.682 251.574 227.964 251.759 230.334 C 251.76 230.352 251.762 230.369 251.763 230.388 L 255.843 289.446 L 256.041 292.272 L 257.844 318.423 Z" fill="#3f3d56" style=""/><polygon points="257.844 318.423 229.239 304.442 253.251 290.908 254.98 289.933 255.843 289.446 256.041 292.272 257.844 318.423" opacity="0.2" style="isolation: isolate;"/><path d="M 304.492 341.223 L 232.029 305.806 L 256.041 292.272 L 257.768 291.297 L 289.059 273.659 C 291.109 272.503 294.049 273.804 294.714 276.017 C 294.76 276.167 294.794 276.32 294.818 276.473 L 304.492 341.223 Z" fill="#3f3d56" style=""/><polygon points="80.908 347.972 88.79 347.971 92.54 317.568 80.906 317.568 80.908 347.972" fill="#ffb8b8" style=""/><path d="M 78.897 345.397 L 94.42 345.397 L 94.421 345.397 C 99.883 345.397 104.313 349.827 104.313 355.289 L 104.313 355.612 L 78.898 355.612 L 78.897 345.397 Z" fill="#2f2e41" style=""/><polygon points="19.642 342.953 27.809 344.549 37.856 313.812 25.804 311.455 19.642 342.953" fill="#ffb8b8" style=""/><path d="M 18.08 339.878 L 34.163 343.025 C 39.824 344.132 43.515 349.619 42.407 355.279 L 42.343 355.612 L 16.011 350.462 L 18.08 339.878 Z" fill="#2f2e41" style=""/><path d="M 92.376 243.097 C 91.239 239.235 86.888 237.34 83.287 239.137 L 66.858 223.078 L 64.591 234.8 L 80.54 248.252 C 83.065 252.572 89.32 252.539 91.797 248.192 C 92.681 246.644 92.889 244.802 92.376 243.097 Z" fill="#ffb8b8" style=""/><circle cx="31.42" cy="144.644" r="15.791" fill="#ffb8b8" style=""/><path d="M 28.104 160.676 C 28.943 161.044 30.66 154.359 29.892 153.021 C 28.748 151.033 28.814 151.047 28.055 149.731 C 27.295 148.417 27.125 146.615 28.109 145.457 C 29.093 144.3 31.37 144.454 31.818 145.906 C 31.53 143.148 34.257 140.932 36.958 140.309 C 39.659 139.687 42.508 140.074 45.223 139.519 C 48.376 138.876 51.655 136.234 50.397 132.768 C 50.182 132.191 49.859 131.66 49.446 131.203 C 47.992 129.57 45.96 128.872 43.973 128.198 C 39.839 126.794 35.591 125.374 31.229 125.529 C 23.882 125.913 17.461 130.609 14.868 137.493 C 14.568 138.336 14.335 139.202 14.172 140.081 C 12.675 148.133 17.35 156.076 24.945 159.141 L 28.104 160.676 Z" fill="#3f3d56" style=""/><path d="M 24.228 247.423 C 23.405 246.925 22.955 245.985 23.084 245.033 L 15.959 209.735 L 8.736 182.646 C 7.103 176.533 9.919 170.103 15.519 167.157 L 20.295 162.639 L 30.711 167.128 L 35.66 172.161 C 42.84 175.656 48.208 182.021 50.444 189.687 L 58.384 216.853 L 76.718 244.131 C 77.348 245.067 77.25 246.313 76.48 247.14 C 73.929 249.883 24.228 247.423 24.228 247.423 Z" fill="#2f2e41" style=""/><path d="M 72.262 244.914 L 45.227 226.181 C 41.541 223.609 38.875 219.829 37.688 215.495 L 30.087 187.747 C 29.516 185.693 29.8 183.495 30.873 181.654 C 33.826 176.504 41.246 176.482 44.23 181.614 C 44.423 181.944 44.589 182.287 44.731 182.642 L 56.001 210.364 L 80.014 233.154 C 80.564 233.822 80.719 234.73 80.421 235.543 L 75.848 243.719 C 75.522 244.685 74.619 245.336 73.599 245.339 C 73.12 245.339 72.654 245.19 72.262 244.914 Z" fill="#2f2e41" style=""/><path d="M 16.096 338.246 C 15.648 337.604 15.541 336.784 15.809 336.046 L 28.315 290.58 L 29.24 246.028 L 71.342 243.14 L 71.546 243.126 L 84.228 266.11 C 88.199 273.297 90.629 281.23 91.365 289.407 L 95.544 335.202 C 95.676 336.497 94.746 337.659 93.454 337.816 L 80.759 339.023 C 79.488 339.178 78.323 338.291 78.137 337.023 L 72.982 290.485 L 54.433 259.146 L 48.207 292.14 L 35.309 337.703 C 34.964 338.635 34.078 339.256 33.086 339.263 L 18.041 339.27 C 17.263 339.273 16.534 338.89 16.096 338.246 Z" fill="#2f2e41" style=""/><path d="M 338.956 487.785 L 21.696 487.785 C 9.985 487.772 0.493 478.28 0.48 466.569 L 0.48 292.336 C 0.493 280.624 9.985 271.133 21.696 271.119 L 60.595 271.119 C 65.874 271.115 70.962 273.082 74.864 276.636 L 117.048 306.757 C 119.799 309.271 123.39 310.662 127.115 310.659 L 340.927 310.659 C 352.765 310.659 362.314 320.348 362.14 332.187 L 360.171 466.879 C 359.954 478.454 350.534 487.737 338.956 487.785 Z" fill="#fff" style=""/><path d="M 335.657 477.497 L 23.094 477.497 C 17.443 477.491 12.865 472.913 12.858 467.263 L 12.858 290.182 C 12.865 284.533 17.443 279.954 23.094 279.947 C 28.091 279.952 32.14 284.002 32.146 289 L 32.146 455.048 C 32.152 460.343 36.443 464.633 41.738 464.64 L 334.602 464.64 C 337.596 464.606 340.226 466.619 340.977 469.517 C 341.818 472.267 340.675 475.233 338.207 476.709 C 337.448 477.204 336.564 477.476 335.657 477.497 Z" fill="#f2f2f2" style=""/><path d="M 177.808 393.256 L 176.47 391.917 C 175.893 391.376 175.863 390.468 176.403 389.891 C 176.425 389.868 176.447 389.846 176.47 389.824 L 188.215 378.069 C 188.756 377.491 189.663 377.462 190.24 378.002 C 190.263 378.024 190.286 378.046 190.308 378.069 L 202.054 389.814 C 202.631 390.373 202.647 391.292 202.089 391.87 L 202.054 391.907 L 200.714 393.246 C 200.157 393.823 199.237 393.838 198.658 393.281 L 198.622 393.246 L 191.678 385.923 L 191.678 403.297 C 191.683 404.094 191.042 404.744 190.245 404.75 L 190.234 404.75 L 188.3 404.75 C 187.496 404.75 186.846 404.099 186.846 403.297 L 186.846 385.945 L 179.901 393.267 C 179.341 393.84 178.42 393.853 177.845 393.292 L 177.808 393.256 Z" fill="#6c63ff" style=""/><path d="M 189.251 371.583 C 204.358 371.583 213.803 387.938 206.247 401.023 C 198.693 414.106 179.809 414.106 172.255 401.023 C 170.533 398.039 169.625 394.654 169.625 391.21 C 169.634 380.375 178.416 371.593 189.251 371.583 M 189.251 369 C 172.154 369 161.47 387.508 170.017 402.316 C 178.566 417.12 199.937 417.12 208.485 402.316 C 210.435 398.939 211.46 395.108 211.46 391.21 C 211.46 378.944 201.517 369 189.251 369 Z" fill="#3f3d56" style=""/><path d="M 338.925 487.785 L 21.244 487.785 C 9.518 487.772 0.013 478.28 0 466.569 L 0 292.336 C 0.013 280.624 9.518 271.133 21.244 271.119 L 60.195 271.119 C 65.48 271.115 70.576 273.082 74.483 276.636 L 116.723 306.757 C 119.476 309.271 123.073 310.662 126.803 310.659 L 340.897 310.659 C 352.753 310.659 362.313 320.348 362.14 332.187 L 360.168 466.879 C 359.951 478.454 350.518 487.737 338.925 487.785 Z M 21.244 272.406 C 10.228 272.418 1.3 281.333 1.287 292.336 L 1.287 466.569 C 1.3 477.571 10.228 486.487 21.244 486.498 L 338.925 486.498 C 349.816 486.454 358.676 477.733 358.88 466.86 L 360.853 332.167 C 361.016 321.048 352.034 311.945 340.897 311.945 L 126.803 311.945 C 122.766 311.948 118.871 310.446 115.883 307.733 L 73.644 277.612 C 69.97 274.259 65.172 272.402 60.195 272.406 L 21.244 272.406 Z" fill="#3f3d56" style=""/><polygon points="365.364 491.177 357.482 491.177 355.018 460.774 365.365 460.775 365.364 491.177" fill="#ffb8b8" style=""/><path d="M 367.373 498.818 L 341.959 498.817 L 341.959 498.496 C 341.959 493.032 346.387 488.603 351.85 488.603 L 351.852 488.603 L 367.375 488.604 L 367.373 498.818 Z" fill="#2f2e41" style=""/><polygon points="453.444 491.177 445.562 491.177 441.813 460.774 453.445 460.775 453.444 491.177" fill="#ffb8b8" style=""/><path d="M 455.453 498.818 L 430.039 498.817 L 430.039 498.496 C 430.039 493.032 434.468 488.603 439.932 488.603 L 455.455 488.604 L 455.453 498.818 Z" fill="#2f2e41" style=""/><path d="M 427.526 397.191 C 429.77 394.561 429.848 390.715 427.714 387.996 C 427.505 387.744 427.274 387.51 427.026 387.294 L 432.962 365.376 L 423.067 368.659 L 418.946 388.969 C 417.549 391.529 417.806 394.674 419.6 396.974 C 421.563 399.567 425.424 399.673 427.526 397.191 Z" fill="#ffb8b8" style=""/><path d="M 427.146 383.708 C 427.022 383.708 426.897 383.699 426.775 383.68 L 421.619 382.903 C 420.807 382.763 420.098 382.271 419.682 381.561 C 419.236 380.812 419.076 379.928 419.23 379.071 L 425.664 343.143 L 421.3 320.061 C 420.46 315.619 422.629 311.132 426.348 309.625 C 428.592 308.708 431.154 309.036 433.094 310.489 C 435.175 312.066 436.489 314.451 436.708 317.053 L 439.796 346.484 L 439.759 346.611 L 429.822 381.489 C 429.527 382.744 428.435 383.651 427.146 383.708 Z" fill="#6c63ff" style=""/><circle cx="425.623" cy="281.114" r="15.791" fill="#ffb8b8" style=""/><path d="M 417.539 354.517 C 417.146 354.518 416.755 354.445 416.388 354.303 L 391.43 344.703 C 390.039 344.173 389.197 342.754 389.397 341.278 L 390.4 333.761 C 389.193 328.352 390.691 322.694 394.417 318.594 L 395.026 317.925 L 402.41 304.46 C 404.514 300.62 409.344 299.233 413.166 301.369 L 426.206 308.656 C 427.923 309.614 429.218 311.179 429.838 313.043 C 431.594 318.323 431.463 324.048 429.47 329.243 L 420.543 352.456 C 420.059 353.695 418.868 354.513 417.539 354.517 Z" fill="#6c63ff" style=""/><path d="M 352.129 483.712 L 352.095 483.706 C 350.3 483.361 349.154 481.589 349.573 479.81 L 368.7 396.204 C 371.83 382.951 376.157 370.008 381.624 357.535 L 389.76 338.982 L 420.123 352.845 L 424.459 360.773 C 427.839 369.604 429.576 378.978 429.588 388.433 L 460.438 478.848 C 461.08 480.727 459.883 482.732 457.924 483.057 L 441.036 482.867 C 440.877 482.896 440.715 482.908 440.553 482.907 C 439.244 482.908 438.066 482.109 437.582 480.892 L 402.316 389.477 C 402.211 389.228 401.965 389.07 401.697 389.078 C 401.434 389.083 401.2 389.252 401.116 389.501 L 367.654 481.371 C 367.124 482.847 365.602 483.72 364.061 483.435 L 352.129 483.712 Z" fill="#2f2e41" style=""/><path d="M 375.219 380.899 C 379.012 379.55 380.662 375.1 378.669 371.605 L 393.792 354.309 L 381.961 352.696 L 369.415 369.367 C 365.241 372.129 365.622 378.371 370.099 380.604 C 371.693 381.401 373.544 381.507 375.219 380.899 Z" fill="#ffb8b8" style=""/><path d="M 382.348 368.715 C 381.822 368.714 381.304 368.586 380.839 368.339 L 375.517 365.5 C 373.865 364.619 373.312 362.52 374.315 360.941 L 393.971 329.966 L 397.381 306.592 C 398.384 299.718 406.45 296.509 411.901 300.813 C 414.673 303.002 415.912 306.606 415.074 310.036 L 408.038 338.846 L 384.851 367.522 C 384.241 368.279 383.32 368.718 382.348 368.715 Z" fill="#6c63ff" style=""/><path d="M 411.41 268.086 C 413.237 262.096 423.789 259.423 432.56 261.909 C 441.332 264.394 447.633 270.91 449.1 277.281 C 452.349 291.388 435.405 302.837 438.476 316.946 C 440.508 326.281 452.258 335.106 465.491 337.237 C 450.907 340.289 433.106 337.606 419.581 330.319 C 411.164 325.784 404.101 318.942 404.208 312.038 C 404.272 307.858 406.931 304.162 410.182 300.969 C 413.433 297.778 417.326 294.939 420.31 291.606 C 423.295 288.273 425.361 284.282 424.491 280.051 C 423.62 275.821 419.196 271.408 413.243 270.177 L 411.41 268.086 Z" fill="#2f2e41" style=""/><path d="M 499.356 500 L 254.403 500 C 253.908 500 253.599 499.465 253.846 499.036 C 253.96 498.837 254.172 498.715 254.403 498.715 L 499.356 498.715 C 499.851 498.715 500.16 499.25 499.913 499.679 C 499.798 499.878 499.587 500 499.356 500 Z" fill="#ccc" style=""/></svg>